<svg width="41" height="40" viewBox="0 0 41 40" fill="none" xmlns="http://www.w3.org/2000/svg">
<rect x="0.375" width="40" height="40" rx="20" fill="#2567F9" fill-opacity="0.1"/>
<path d="M30.375 18H10.375M19.375 27H27.175C28.295 27 28.855 27 29.283 26.782C29.6593 26.5903 29.9653 26.2843 30.157 25.908C30.375 25.48 30.375 24.92 30.375 23.8V16.2C30.375 15.08 30.375 14.52 30.157 14.092C29.9653 13.7157 29.6593 13.4097 29.283 13.218C28.855 13 28.295 13 27.175 13H25.375M19.375 27L21.375 29M19.375 27L21.375 25M15.375 27H13.575C12.455 27 11.895 27 11.467 26.782C11.0907 26.5903 10.7847 26.2843 10.593 25.908C10.375 25.48 10.375 24.92 10.375 23.8V16.2C10.375 15.08 10.375 14.52 10.593 14.092C10.7847 13.7157 11.0907 13.4097 11.467 13.218C11.895 13 12.455 13 13.575 13H21.375M21.375 13L19.375 15M21.375 13L19.375 11" stroke="#2567F9" stroke-width="1.5" stroke-linecap="round" stroke-linejoin="round"/>
</svg>
