<svg width="40" height="40" viewBox="0 0 40 40" fill="none" xmlns="http://www.w3.org/2000/svg">
<rect width="40" height="40" rx="20" fill="#2EAB77" fill-opacity="0.1"/>
<g clip-path="url(#clip0_97_6090)">
<path d="M8.68994 14.997C11.889 12.4053 15.8828 10.9939 19.9999 11C24.2849 11 28.2199 12.497 31.3099 14.997L30.0539 16.553C27.2102 14.2491 23.6599 12.9945 19.9999 13C16.1909 13 12.6939 14.33 9.94594 16.553L8.68994 14.997ZM11.8309 18.887C14.1415 17.015 17.0262 15.9956 19.9999 16C23.0939 16 25.9359 17.081 28.1689 18.886L26.9119 20.442C24.9568 18.8584 22.516 17.996 19.9999 18C17.3819 18 14.9769 18.915 13.0879 20.442L11.8309 18.886V18.887ZM14.9729 22.777C16.3948 21.6249 18.1699 20.9974 19.9999 21C21.9039 21 23.6529 21.665 25.0269 22.776L23.7699 24.332C22.7035 23.4682 21.3723 22.9979 19.9999 23C18.5719 23 17.2599 23.499 16.2299 24.332L14.9729 22.776V22.777ZM18.1149 26.667C18.648 26.2347 19.3136 25.9992 19.9999 26C20.7139 26 21.3699 26.25 21.8849 26.666L19.9999 29L18.1149 26.666V26.667Z" fill="#2EAB77"/>
</g>
<defs>
<clipPath id="clip0_97_6090">
<rect width="24" height="24" fill="white" transform="translate(8 8)"/>
</clipPath>
</defs>
</svg>
