<svg width="41" height="40" viewBox="0 0 41 40" fill="none" xmlns="http://www.w3.org/2000/svg">
<path d="M20.625 20V11" stroke="#171930" stroke-linecap="round" stroke-linejoin="round"/>
<path d="M28.4157 15.5L12.8345 24.5" stroke="#171930" stroke-linecap="round" stroke-linejoin="round"/>
<path d="M11.7751 21.65C11.6728 21.106 11.6225 20.5535 11.6251 20C11.6239 18.1387 12.2005 16.3229 13.2752 14.8032C14.3499 13.2835 15.8698 12.1348 17.6251 11.5156V18.2656L11.7751 21.65Z" stroke="#171930" stroke-linecap="round" stroke-linejoin="round"/>
<path d="M20.625 11C22.2021 11.0002 23.7514 11.4147 25.1178 12.2022C26.4841 12.9896 27.6196 14.1222 28.4105 15.4866C29.2014 16.851 29.6198 18.3992 29.624 19.9762C29.6282 21.5533 29.2179 23.1037 28.4342 24.4722C27.6506 25.8408 26.5211 26.9794 25.1589 27.774C23.7967 28.5686 22.2496 28.9914 20.6726 28.9999C19.0956 29.0084 17.544 28.6024 16.1733 27.8225C14.8026 27.0426 13.6609 25.9163 12.8625 24.5563" stroke="#171930" stroke-linecap="round" stroke-linejoin="round"/>
</svg>
