<svg width="40" height="41" viewBox="0 0 40 41" fill="none" xmlns="http://www.w3.org/2000/svg">
<rect y="0.5" width="40" height="40" rx="20" fill="#FB446E" fill-opacity="0.1"/>
<path d="M12.5 21.5875V28C12.5 28.1989 12.579 28.3897 12.7197 28.5304C12.8603 28.671 13.0511 28.75 13.25 28.75H26.75C26.9489 28.75 27.1397 28.671 27.2803 28.5304C27.421 28.3897 27.5 28.1989 27.5 28V21.5875" stroke="#FB446E" stroke-width="1.5" stroke-linecap="round" stroke-linejoin="round"/>
<path d="M13.0625 12.25H26.9375C27.1002 12.2513 27.2582 12.3049 27.3881 12.4028C27.5181 12.5007 27.6132 12.6377 27.6594 12.7937L29 17.5H11L12.3406 12.7937C12.3868 12.6377 12.4819 12.5007 12.6119 12.4028C12.7418 12.3049 12.8998 12.2513 13.0625 12.25V12.25Z" stroke="#FB446E" stroke-width="1.5" stroke-linecap="round" stroke-linejoin="round"/>
<path d="M17 17.5V19C17 19.7956 16.6839 20.5587 16.1213 21.1213C15.5587 21.6839 14.7956 22 14 22C13.2044 22 12.4413 21.6839 11.8787 21.1213C11.3161 20.5587 11 19.7956 11 19V17.5" stroke="#FB446E" stroke-width="1.5" stroke-linecap="round" stroke-linejoin="round"/>
<path d="M23 17.5V19C23 19.7956 22.6839 20.5587 22.1213 21.1213C21.5587 21.6839 20.7956 22 20 22C19.2044 22 18.4413 21.6839 17.8787 21.1213C17.3161 20.5587 17 19.7956 17 19V17.5" stroke="#FB446E" stroke-width="1.5" stroke-linecap="round" stroke-linejoin="round"/>
<path d="M29 17.5V19C29 19.7956 28.6839 20.5587 28.1213 21.1213C27.5587 21.6839 26.7956 22 26 22C25.2044 22 24.4413 21.6839 23.8787 21.1213C23.3161 20.5587 23 19.7956 23 19V17.5" stroke="#FB446E" stroke-width="1.5" stroke-linecap="round" stroke-linejoin="round"/>
</svg>
