<svg width="41" height="40" viewBox="0 0 41 40" fill="none" xmlns="http://www.w3.org/2000/svg">
<path d="M23.125 27.5V23C23.125 22.8011 23.046 22.6103 22.9053 22.4697C22.7647 22.329 22.5739 22.25 22.375 22.25H19.375C19.1761 22.25 18.9853 22.329 18.8447 22.4697C18.704 22.6103 18.625 22.8011 18.625 23V27.5C18.625 27.6989 18.546 27.8897 18.4053 28.0303C18.2647 28.171 18.0739 28.25 17.875 28.25H13.375C13.1761 28.25 12.9853 28.171 12.8447 28.0303C12.704 27.8897 12.625 27.6989 12.625 27.5V18.8281C12.6267 18.7243 12.6491 18.6219 12.691 18.5269C12.7328 18.432 12.7933 18.3463 12.8687 18.275L20.3687 11.4594C20.507 11.3329 20.6876 11.2628 20.875 11.2628C21.0624 11.2628 21.243 11.3329 21.3812 11.4594L28.8812 18.275C28.9567 18.3463 29.0172 18.432 29.059 18.5269C29.1009 18.6219 29.1233 18.7243 29.125 18.8281V27.5C29.125 27.6989 29.046 27.8897 28.9053 28.0303C28.7647 28.171 28.5739 28.25 28.375 28.25H23.875C23.6761 28.25 23.4853 28.171 23.3447 28.0303C23.204 27.8897 23.125 27.6989 23.125 27.5Z" stroke="#2567F9" stroke-linecap="round" stroke-linejoin="round"/>
</svg>
