<svg width="113" height="80" viewBox="0 0 113 80" fill="none" xmlns="http://www.w3.org/2000/svg">
<path d="M68.0826 19.0347H44.7493V60.9653H68.0826V19.0347Z" fill="#FF5F00"/>
<path d="M46.231 40C46.2273 35.9618 47.1424 31.9756 48.9069 28.3434C50.6715 24.7111 53.2394 21.5279 56.416 19.0347C52.4822 15.9426 47.7577 14.0197 42.7826 13.4857C37.8075 12.9517 32.7826 13.8282 28.2821 16.0151C23.7817 18.2019 19.9872 21.6109 17.3326 25.8523C14.678 30.0936 13.2702 34.9963 13.2702 40C13.2702 45.0036 14.678 49.9063 17.3326 54.1477C19.9872 58.3891 23.7817 61.7981 28.2821 63.9849C32.7826 66.1718 37.8075 67.0483 42.7826 66.5143C47.7577 65.9803 52.4822 64.0574 56.416 60.9653C53.2394 58.4721 50.6716 55.2889 48.907 51.6566C47.1424 48.0243 46.2273 44.0382 46.231 40V40Z" fill="#EB001B"/>
<path d="M99.5605 40C99.5607 45.0036 98.1531 49.9063 95.4986 54.1476C92.8441 58.389 89.0498 61.798 84.5494 63.9849C80.0491 66.1717 75.0242 67.0483 70.0492 66.5143C65.0742 65.9803 60.3498 64.0574 56.416 60.9653C59.5899 58.4696 62.1557 55.2859 63.92 51.6542C65.6843 48.0225 66.601 44.0376 66.601 40C66.601 35.9624 65.6843 31.9775 63.92 28.3458C62.1557 24.7141 59.5899 21.5304 56.416 19.0347C60.3498 15.9426 65.0742 14.0196 70.0492 13.4857C75.0242 12.9517 80.0491 13.8282 84.5494 16.0151C89.0498 18.202 92.8441 21.6109 95.4986 25.8523C98.1531 30.0937 99.5607 34.9964 99.5605 40V40Z" fill="#F79E1B"/>
<path d="M97.0164 56.5242V55.6657H97.3625V55.4908H96.481V55.6657H96.8273V56.5242H97.0164ZM98.7279 56.5242V55.4892H98.4577L98.1469 56.2011L97.836 55.4892H97.5656V56.5242H97.7564V55.7434L98.0479 56.4166H98.2457L98.5372 55.7417V56.5242H98.7279Z" fill="#F79E1B"/>
</svg>
