<svg width="40" height="40" viewBox="0 0 40 40" fill="none" xmlns="http://www.w3.org/2000/svg">
<rect width="40" height="40" rx="20" fill="#FFAB09" fill-opacity="0.15"/>
<path d="M13.269 17.75C13.2678 16.8605 13.4426 15.9796 13.7834 15.158C14.1242 14.3363 14.6243 13.5903 15.2548 12.9629C15.8853 12.3354 16.6337 11.839 17.4569 11.5021C18.2802 11.1652 19.1619 10.9947 20.0514 11.0002C23.763 11.0278 26.7317 14.1128 26.7317 17.8347V18.5C26.7317 21.8577 27.4342 23.8062 28.0529 24.8711C28.1196 24.9849 28.1551 25.1142 28.1558 25.2461C28.1565 25.378 28.1224 25.5077 28.0569 25.6222C27.9915 25.7367 27.8971 25.8319 27.7831 25.8982C27.6691 25.9646 27.5397 25.9997 27.4078 26H12.5922C12.4603 25.9997 12.3309 25.9645 12.2169 25.8982C12.1029 25.8318 12.0084 25.7366 11.943 25.6221C11.8776 25.5076 11.8435 25.3778 11.8442 25.2459C11.845 25.1141 11.8805 24.9847 11.9472 24.8709C12.5662 23.806 13.269 21.8575 13.269 18.5L13.269 17.75Z" stroke="#FFAB09" stroke-linecap="round" stroke-linejoin="round"/>
<path d="M17 26V26.75C17 27.5456 17.3161 28.3087 17.8787 28.8713C18.4413 29.4339 19.2044 29.75 20 29.75C20.7956 29.75 21.5587 29.4339 22.1213 28.8713C22.6839 28.3087 23 27.5456 23 26.75V26" stroke="#FFAB09" stroke-linecap="round" stroke-linejoin="round"/>
</svg>
