<svg width="41" height="40" viewBox="0 0 41 40" fill="none" xmlns="http://www.w3.org/2000/svg">
<rect x="0.125" width="40" height="40" rx="20" fill="#F93E25" fill-opacity="0.2"/>
<path d="M11.875 14V26C11.875 26.3978 12.033 26.7794 12.3143 27.0607C12.5956 27.342 12.9772 27.5 13.375 27.5H28.375C28.5739 27.5 28.7647 27.421 28.9053 27.2803C29.046 27.1397 29.125 26.9489 29.125 26.75V16.25C29.125 16.0511 29.046 15.8603 28.9053 15.7197C28.7647 15.579 28.5739 15.5 28.375 15.5H13.375C12.9772 15.5 12.5956 15.342 12.3143 15.0607C12.033 14.7794 11.875 14.3978 11.875 14ZM11.875 14C11.875 13.6022 12.033 13.2206 12.3143 12.9393C12.5956 12.658 12.9772 12.5 13.375 12.5H26.125" stroke="#F93E25" stroke-width="1.5" stroke-linecap="round" stroke-linejoin="round"/>
<path d="M25 22.625C25.6213 22.625 26.125 22.1213 26.125 21.5C26.125 20.8787 25.6213 20.375 25 20.375C24.3787 20.375 23.875 20.8787 23.875 21.5C23.875 22.1213 24.3787 22.625 25 22.625Z" fill="#F93E25"/>
</svg>
