<svg width="41" height="40" viewBox="0 0 41 40" fill="none" xmlns="http://www.w3.org/2000/svg">
<path d="M20.125 21.0831C23.3401 21.0831 25.919 18.5043 25.919 15.2911H24.919C24.919 17.9518 22.7881 20.0831 20.125 20.0831V21.0831ZM14.331 15.2911C14.331 18.5044 16.9109 21.0831 20.125 21.0831V20.0831C17.4629 20.0831 15.331 17.9518 15.331 15.2911H14.331ZM20.125 9.5C16.9111 9.5 14.331 12.0776 14.331 15.2911H15.331C15.331 12.6305 17.4627 10.5 20.125 10.5V9.5ZM25.919 15.2911C25.919 12.0776 23.34 9.5 20.125 9.5V10.5C22.7882 10.5 24.919 12.6304 24.919 15.2911H25.919ZM11.625 26.575C11.625 27.3798 11.9006 28.0544 12.3964 28.5954C12.8819 29.1252 13.5574 29.5047 14.3315 29.7788C15.8731 30.3247 17.944 30.5 20.125 30.5V29.5C17.9683 29.5 16.0393 29.3227 14.6653 28.8362C13.9816 28.5941 13.4704 28.2873 13.1336 27.9198C12.8072 27.5636 12.625 27.1302 12.625 26.575H11.625ZM20.125 22.6739C17.9564 22.6739 15.886 22.8428 14.3422 23.382C13.567 23.6527 12.889 24.0287 12.4012 24.5561C11.9027 25.095 11.625 25.7689 11.625 26.575H12.625C12.625 26.0205 12.8079 25.589 13.1353 25.2351C13.4733 24.8697 13.9864 24.5655 14.6719 24.3261C16.0494 23.845 17.9789 23.6739 20.125 23.6739V22.6739ZM28.625 26.599C28.625 25.7942 28.3495 25.1195 27.8538 24.5785C27.3683 24.0487 26.693 23.6693 25.9189 23.3951C24.3774 22.8492 22.3065 22.6739 20.125 22.6739V23.6739C22.2822 23.6739 24.2112 23.8512 25.5851 24.3377C26.2687 24.5799 26.7798 24.8866 27.1165 25.2541C27.4428 25.6102 27.625 26.0437 27.625 26.599H28.625ZM20.125 30.5C22.2936 30.5 24.364 30.3311 25.9078 29.7919C26.683 29.5212 27.361 29.1452 27.8488 28.6178C28.3473 28.0789 28.625 27.405 28.625 26.599H27.625C27.625 27.1535 27.4421 27.5849 27.1147 27.9388C26.7767 28.3042 26.2636 28.6084 25.5781 28.8478C24.2006 29.3289 22.271 29.5 20.125 29.5V30.5Z" fill="#171930"/>
</svg>
