<svg width="41" height="40" viewBox="0 0 41 40" fill="none" xmlns="http://www.w3.org/2000/svg">
<path d="M28.0907 11.3656L10.6157 16.2875C10.4669 16.3281 10.3343 16.4137 10.2359 16.5324C10.1376 16.6512 10.0782 16.7974 10.0659 16.9511C10.0536 17.1048 10.089 17.2586 10.1672 17.3915C10.2455 17.5244 10.3628 17.6299 10.5032 17.6937L18.5282 21.4906C18.6854 21.5634 18.8116 21.6896 18.8844 21.8468L22.6813 29.8718C22.7451 30.0122 22.8506 30.1296 22.9835 30.2078C23.1164 30.2861 23.2702 30.3215 23.4239 30.3092C23.5776 30.2969 23.7238 30.2375 23.8426 30.1391C23.9614 30.0407 24.0469 29.9081 24.0876 29.7593L29.0094 12.2843C29.0467 12.1568 29.049 12.0216 29.0161 11.8929C28.9832 11.7642 28.9162 11.6467 28.8223 11.5527C28.7283 11.4588 28.6109 11.3918 28.4821 11.3589C28.3534 11.326 28.2182 11.3283 28.0907 11.3656V11.3656Z" stroke="#171930" stroke-linecap="round" stroke-linejoin="round"/>
<path d="M18.772 21.6031L23.0095 17.3656" stroke="#171930" stroke-linecap="round" stroke-linejoin="round"/>
</svg>
