<svg width="41" height="40" viewBox="0 0 41 40" fill="none" xmlns="http://www.w3.org/2000/svg">
<rect x="0.625" width="40" height="40" rx="20" fill="#9747FF" fill-opacity="0.3"/>
<path d="M28.125 20V27.5C28.125 27.6989 28.046 27.8897 27.9053 28.0303C27.7647 28.171 27.5739 28.25 27.375 28.25H13.125C12.9261 28.25 12.7353 28.171 12.5947 28.0303C12.454 27.8897 12.375 27.6989 12.375 27.5V13.25C12.375 13.0511 12.454 12.8603 12.5947 12.7197C12.7353 12.579 12.9261 12.5 13.125 12.5H20.625" stroke="#9747FF" stroke-width="1.5" stroke-linecap="round" stroke-linejoin="round"/>
<path d="M27 16.25C28.4497 16.25 29.625 15.0747 29.625 13.625C29.625 12.1753 28.4497 11 27 11C25.5503 11 24.375 12.1753 24.375 13.625C24.375 15.0747 25.5503 16.25 27 16.25Z" stroke="#9747FF" stroke-width="1.5" stroke-linecap="round" stroke-linejoin="round"/>
</svg>
